<svg width="24.000000" height="24.000000" viewBox="0 0 24 24" fill="none" xmlns="http://www.w3.org/2000/svg" xmlns:xlink="http://www.w3.org/1999/xlink">
	<desc>
			Created with Pixso.
	</desc>
	<defs>
		<filter id="filter_5_81_dd" x="-3.083374" y="0.916626" width="30.166656" height="23.750488" filterUnits="userSpaceOnUse" color-interpolation-filters="sRGB">
			<feFlood flood-opacity="0" result="BackgroundImageFix"/>
			<feColorMatrix in="SourceAlpha" type="matrix" values="0 0 0 0 0 0 0 0 0 0 0 0 0 0 0 0 0 0 127 0" result="hardAlpha"/>
			<feOffset dx="0" dy="4"/>
			<feGaussianBlur stdDeviation="1.33333"/>
			<feComposite in2="hardAlpha" operator="out" k2="-1" k3="1"/>
			<feColorMatrix type="matrix" values="0 0 0 0 0 0 0 0 0 0 0 0 0 0 0 0 0 0 0.25 0"/>
			<feBlend mode="normal" in2="BackgroundImageFix" result="effect_dropShadow_1"/>
			<feBlend mode="normal" in="SourceGraphic" in2="effect_dropShadow_1" result="shape"/>
		</filter>
		<clipPath id="clip5_82">
			<rect id="shopping-cart" width="22.000000" height="22.000000" transform="translate(1.000000 1.000000)" fill="white" fill-opacity="0"/>
		</clipPath>
		<clipPath id="clip3_996">
			<rect id="cart" width="24.000000" height="24.000000" fill="white" fill-opacity="0"/>
		</clipPath>
	</defs>
	<g clip-path="url(#clip3_996)">
		<rect id="shopping-cart" width="22.000000" height="22.000000" transform="translate(1.000000 1.000000)" fill="#FFFFFF" fill-opacity="0"/>
		<g clip-path="url(#clip5_82)">
			<path id="Vector" d="M9.25003 21.1667C8.74377 21.1667 8.33337 20.7563 8.33337 20.25C8.33337 19.7438 8.74377 19.3334 9.25003 19.3334C9.75629 19.3334 10.1667 19.7438 10.1667 20.25C10.1667 20.7563 9.75629 21.1667 9.25003 21.1667Z" stroke="#2C2D35" stroke-opacity="1.000000" stroke-width="2.000000" stroke-linejoin="round"/>
			<path id="Vector" d="M19.3333 21.1667C18.827 21.1667 18.4166 20.7563 18.4166 20.25C18.4166 19.7438 18.827 19.3334 19.3333 19.3334C19.8395 19.3334 20.25 19.7438 20.25 20.25C20.25 20.7563 19.8395 21.1667 19.3333 21.1667Z" stroke="#2C2D35" stroke-opacity="1.000000" stroke-width="2.000000" stroke-linejoin="round"/>
			<g filter="url(#filter_5_81_dd)"/>
			<path id="Vector" d="M1.91663 1.91663L5.58328 1.91663L8.03995 14.1908C8.12378 14.6128 8.35336 14.9919 8.68854 15.2617C9.02371 15.5315 9.44308 15.6749 9.87329 15.6666L18.7833 15.6666C19.2135 15.6749 19.6329 15.5315 19.968 15.2617C20.3032 14.9919 20.5328 14.6128 20.6166 14.1908L22.0833 6.5L6.49997 6.5" stroke="#2C2D35" stroke-opacity="1.000000" stroke-width="2.000000" stroke-linejoin="round" stroke-linecap="round"/>
		</g>
	</g>
</svg>
