<svg width="143.000000" height="35.000000" viewBox="0 0 143 35" fill="none" xmlns="http://www.w3.org/2000/svg" xmlns:xlink="http://www.w3.org/1999/xlink">
	<desc>
			Created with Pixso.
	</desc>
	<defs/>
	<path d="M17.5 0L15.0348 9.10449L8.03882 2.77808L10.8872 11.77L1.58142 10.2302L8.83911 16.2548L0.178101 19.9905L9.54077 21.1349L4.27441 28.9601L12.7694 24.861L12.5697 34.2911L17.5 26.25L22.4303 34.2911L22.2306 24.861L30.7256 28.9601L25.4592 21.1349L34.8219 19.9905L26.1609 16.2548L33.4186 10.2302L24.1128 11.77L26.9612 2.77808L19.9652 9.10449L17.5 0Z" fill="#598D66" fill-opacity="1.000000" fill-rule="evenodd"/>
	<path d="M66.113 20.04L69.173 24.56L72.033 24.56L67.853 18.54L71.753 14.1L68.913 14.1L64.693 18.8L64.693 9.96L62.013 9.96L62.013 24.56L64.693 24.56L64.693 21.44L66.113 20.04ZM44.48 10.36L44.48 24.56L47.24 24.56L47.24 10.36L44.48 10.36ZM94.6622 24.56L94.6622 10.36L91.9222 10.36L91.9222 16.1L85.4822 16.1L85.4822 10.36L82.7222 10.36L82.7222 24.56L85.4822 24.56L85.4822 18.5L91.9222 18.5L91.9222 24.56L94.6622 24.56ZM122.981 24.32C123.794 24.6133 124.648 24.76 125.541 24.76C126.821 24.76 127.841 24.4667 128.601 23.88C129.361 23.2933 129.741 22.48 129.741 21.44C129.741 20.8 129.588 20.2933 129.281 19.92C128.988 19.5467 128.548 19.24 127.961 19C127.388 18.76 126.688 18.5133 125.861 18.26C125.221 18.0733 124.741 17.9 124.421 17.74C124.114 17.58 123.961 17.3133 123.961 16.94C123.961 16.54 124.121 16.26 124.441 16.1C124.774 15.94 125.154 15.86 125.581 15.86Q127.021 15.86 128.561 17.06L129.641 15.36Q128.931 14.6849 128.087 14.3394Q127.955 14.2857 127.821 14.24C127.154 14 126.448 13.88 125.701 13.88Q123.781 13.88 122.621 14.8C121.848 15.4133 121.461 16.2333 121.461 17.26C121.461 17.8333 121.588 18.3 121.841 18.66Q122.241 19.2 123.021 19.58C123.541 19.8333 124.188 20.08 124.961 20.32C125.654 20.5333 126.194 20.7133 126.581 20.86C126.968 20.9933 127.161 21.2533 127.161 21.64C127.161 22.0133 127.001 22.2933 126.681 22.48C126.374 22.6667 125.961 22.76 125.441 22.76C124.868 22.76 124.281 22.64 123.681 22.4C123.081 22.16 122.468 21.7867 121.841 21.28L120.881 23.02C121.468 23.5933 122.168 24.0267 122.981 24.32ZM57.0027 24.56L59.6827 24.56L59.6827 18.02Q59.6827 17.4424 59.6018 16.8763Q59.5762 16.6976 59.5427 16.52C59.4627 16.0267 59.3093 15.5867 59.0827 15.2C58.856 14.8 58.536 14.4867 58.1227 14.26Q57.5027 13.9 56.5227 13.9Q55.2371 13.9 54.1946 14.4033Q54.118 14.4403 54.0427 14.48Q53.2135 14.9021 52.6798 15.5629Q52.5055 15.7787 52.3627 16.02L52.3627 14.08L49.9427 14.08L49.9427 24.56L52.6227 24.56L52.6227 18.44C52.756 18.0133 52.9693 17.64 53.2627 17.32C53.556 16.9867 53.8827 16.7267 54.2427 16.54Q54.8027 16.26 55.3427 16.26Q55.8003 16.26 56.1409 16.4597Q56.3808 16.6003 56.5627 16.84C56.856 17.2267 57.0027 17.84 57.0027 18.68L57.0027 24.56ZM99.0687 24.02C99.8954 24.5133 100.882 24.76 102.029 24.76C103.162 24.76 104.135 24.5133 104.949 24.02C105.775 23.5133 106.409 22.8467 106.849 22.02C107.289 21.1933 107.509 20.3 107.509 19.34C107.509 18.3667 107.289 17.4667 106.849 16.64C106.409 15.8133 105.775 15.1533 104.949 14.66C104.135 14.1533 103.162 13.9 102.029 13.9C100.895 13.9 99.9154 14.1533 99.0887 14.66C98.2754 15.1533 97.6421 15.8133 97.1888 16.64C96.7487 17.4667 96.5287 18.3667 96.5287 19.34C96.5287 20.3 96.7487 21.1933 97.1888 22.02C97.6288 22.8467 98.2554 23.5133 99.0687 24.02ZM133.484 24.02C134.31 24.5133 135.29 24.76 136.424 24.76C137.584 24.76 138.59 24.5067 139.444 24C140.297 23.48 140.917 22.82 141.304 22.02L139.004 21.38C138.83 21.8067 138.504 22.1533 138.024 22.42C137.557 22.6733 137.057 22.8 136.524 22.8C135.817 22.8 135.19 22.5667 134.644 22.1C134.11 21.6333 133.81 20.9933 133.744 20.18L141.844 20.18C141.884 19.9267 141.904 19.6267 141.904 19.28C141.904 18.3333 141.684 17.4533 141.244 16.64C140.817 15.8133 140.197 15.1533 139.384 14.66C138.57 14.1533 137.59 13.9 136.444 13.9C135.297 13.9 134.31 14.1533 133.484 14.66Q132.826 15.0523 132.326 15.5908Q131.883 16.068 131.564 16.66Q131.379 17.007 131.246 17.3727Q130.904 18.3141 130.904 19.38C130.904 20.34 131.13 21.2333 131.584 22.06C132.037 22.8733 132.67 23.5267 133.484 24.02ZM109.218 14.08L109.218 20.64Q109.218 22.66 110.058 23.72C110.618 24.4133 111.438 24.76 112.518 24.76C113.398 24.76 114.204 24.58 114.938 24.22C115.671 23.86 116.271 23.32 116.738 22.6L116.798 23.44C116.851 23.8267 117.024 24.1333 117.318 24.36C117.624 24.5733 118.018 24.68 118.498 24.68C118.644 24.68 118.804 24.6733 118.978 24.66C119.164 24.6467 119.391 24.6133 119.658 24.56L119.658 22.38C119.418 22.3533 119.251 22.2867 119.158 22.18C119.064 22.06 119.018 21.8533 119.018 21.56L119.018 14.08L116.338 14.08L116.338 20.58C116.031 21.22 115.631 21.7 115.138 22.02C114.658 22.3267 114.158 22.48 113.638 22.48C112.478 22.48 111.898 21.6733 111.898 20.06L111.898 14.08L109.218 14.08ZM139.164 18.48L133.684 18.48Q133.757 17.6107 134.189 16.991Q134.344 16.7696 134.544 16.58C135.064 16.0867 135.684 15.84 136.404 15.84C137.137 15.84 137.757 16.0867 138.264 16.58C138.784 17.06 139.084 17.6933 139.164 18.48ZM99.6488 20.98C99.4088 20.5 99.2887 19.9533 99.2887 19.34C99.2887 18.7267 99.4088 18.1867 99.6488 17.72C99.8887 17.24 100.215 16.8667 100.629 16.6C101.042 16.32 101.509 16.18 102.029 16.18C102.535 16.18 102.995 16.32 103.409 16.6C103.822 16.8667 104.149 17.24 104.389 17.72C104.642 18.1867 104.769 18.72 104.769 19.32C104.769 19.9333 104.642 20.48 104.389 20.96C104.149 21.4267 103.822 21.8 103.409 22.08C102.995 22.3467 102.535 22.48 102.029 22.48Q101.504 22.48 101.052 22.2991Q100.832 22.211 100.629 22.08C100.215 21.8133 99.8887 21.4467 99.6488 20.98ZM73.1053 21.68L73.1053 24.56L75.3053 24.56L75.3053 21.68L73.1053 21.68Z" fill="#598D66" fill-opacity="1.000000" fill-rule="evenodd"/>
</svg>
